:SAMPLES-PER-SECOND 30
:FULLY-SPECIFIED
:DEGREES
230
root  -55.1218 35.0092 29.9164 -173.402 31.5074 177.566
RightUpLeg  -5.40039 -19.1492 -3.5181
RightLeg  9.422 -7.27161 -0.726397
RightFoot  0.316934 0.00380634 0.13108
RightToes  -20.9572 -0.0938424 -0.184675
Spine  -1.99874 3.22581 -1.56897
Spine1  -3.93273 6.17411 -2.45912
HEad  -49.4306 -14.757 6.41369
LeftShoulder1  -1.94126e-019 -3.10601e-018 -2.51263e-017
LeftArm  -7.2077 24.1371 -77.5246
LeftForeArm  27.7908 -23.5235 -3.81143
LeftHand  -0.315207 -1.04696 5.81869
RightShoulder  -4.96962e-017 0 -2.36833e-017
RightArm  2.2518 23.728 87.2002
RightForeArm  44.7364 33.5129 4.96575
RightHand  -0.206421 -0.513449 -4.88692
LeftUpLeg  -7.54662 -13.3418 -0.855493
LeftLeg  1.39987 8.55935 -0.339999
LeftFoot  9.39444 -0.113336 1.54083
LeftToes  -18.5972 1.48321e-006 1.01846e-007
231
root  -55.1306 35.0032 29.9768 -173.2 31.1458 177.621
RightUpLeg  -5.68092 -19.4383 -3.34708
RightLeg  9.57614 -7.31106 -0.750141
RightFoot  0.235672 0.00251909 0.142606
RightToes  -20.8881 -0.0936344 -0.184318
Spine  -1.91871 3.27265 -1.59363
Spine1  -3.77845 6.27684 -2.50829
HEad  -49.4234 -14.3547 6.18954
LeftShoulder1  -1.94126e-019 -3.10601e-018 -2.51263e-017
LeftArm  -7.25581 23.9066 -77.6915
LeftForeArm  27.9646 -23.2785 -3.78363
LeftHand  -0.330108 -1.08515 6.05578
RightShoulder  -4.96962e-017 0 -2.36833e-017
RightArm  2.14482 23.7257 87.4137
RightForeArm  44.2976 33.3434 4.94584
RightHand  -0.22944 -0.0718948 -5.03228
LeftUpLeg  -7.80098 -13.3555 -0.699317
LeftLeg  1.31705 8.24243 -0.339387
LeftFoot  9.48217 -0.111854 1.50151
LeftToes  -18.7803 1.48321e-006 1.01846e-007
232
root  -55.133 35.002 30.0309 -173.054 30.9188 177.634
RightUpLeg  -5.90154 -19.6619 -3.2155
RightLeg  9.6393 -7.35058 -0.762345
RightFoot  0.163058 0.00122463 0.154017
RightToes  -20.7504 -0.0934586 -0.184043
Spine  -1.85498 3.33673 -1.61873
Spine1  -3.66067 6.41971 -2.55432
HEad  -49.6546 -13.8227 5.98699
LeftShoulder1  -1.94126e-019 -3.10601e-018 -2.51263e-017
LeftArm  -7.37359 23.8335 -77.8522
LeftForeArm  28.2085 -22.6961 -3.68784
LeftHand  -0.338005 -1.18947 6.10824
RightShoulder  -4.96962e-017 0 -2.36833e-017
RightArm  2.10563 23.7538 87.6907
RightForeArm  44.3078 33.024 4.86633
RightHand  -0.253793 0.0430818 -5.46041
LeftUpLeg  -7.99476 -13.3501 -0.587771
LeftLeg  1.20953 8.00079 -0.344486
LeftFoot  9.63157 -0.111646 1.48331
LeftToes  -18.8637 1.48321e-006 1.01846e-007
233
root  -55.1396 35.0019 30.0795 -172.797 30.7363 177.711
RightUpLeg  -6.14181 -19.8504 -3.02173
RightLeg  9.57591 -7.32607 -0.751644
RightFoot  0.21664 0.0008759 0.151704
RightToes  -20.8142 -0.0933127 -0.183834
Spine  -1.80845 3.37793 -1.63973
Spine1  -3.57427 6.51203 -2.59313
HEad  -50.0966 -13.4528 5.70346
LeftShoulder1  -1.94126e-019 -3.10601e-018 -2.51263e-017
LeftArm  -7.90998 23.7416 -77.9378
LeftForeArm  29.2642 -21.9667 -3.57279
LeftHand  -0.30278 -1.25256 5.43762
RightShoulder  -4.96962e-017 0 -2.36833e-017
RightArm  2.18666 23.7956 87.9839
RightForeArm  43.9527 32.9004 4.85312
RightHand  -0.279567 0.210536 -5.85003
LeftUpLeg  -8.30432 -13.4133 -0.407187
LeftLeg  1.19264 7.87158 -0.341276
LeftFoot  9.71425 -0.1119 1.47359
LeftToes  -19.0932 1.48321e-006 1.01846e-007
234
root  -55.1411 35.0022 30.1131 -172.663 30.5892 177.739
RightUpLeg  -6.26705 -20.1209 -2.91797
RightLeg  9.52789 -7.19468 -0.732157
RightFoot  0.236724 0.000697215 0.146754
RightToes  -20.7888 -0.0931941 -0.183675
Spine  -1.75387 3.44007 -1.69381
Spine1  -3.47512 6.64935 -2.69107
HEad  -50.4105 -13.2013 5.42831
LeftShoulder1  -1.94126e-019 -3.10601e-018 -2.51263e-017
LeftArm  -7.98565 23.7372 -77.9434
LeftForeArm  28.8205 -21.0466 -3.44178
LeftHand  -0.323741 -1.16712 5.87377
RightShoulder  -4.96962e-017 0 -2.36833e-017
RightArm  2.11438 23.7382 88.2757
RightForeArm  43.1045 32.9144 4.89726
RightHand  -0.266849 -0.687252 -6.55004
LeftUpLeg  -8.48619 -13.5367 -0.300582
LeftLeg  1.17457 7.82225 -0.341613
LeftFoot  9.81297 -0.112799 1.47519
LeftToes  -19.2002 1.48321e-006 1.01846e-007
235
root  -55.1563 35.0027 30.1447 -172.426 30.4474 177.758
RightUpLeg  -6.55885 -20.329 -2.79944
RightLeg  9.55836 -7.1348 -0.729922
RightFoot  0.23651 0.000172666 0.146546
RightToes  -20.8408 -0.0931002 -0.183548
Spine  -1.74071 3.49763 -1.75449
Spine1  -3.45718 6.7727 -2.80854
HEad  -50.8159 -12.9465 5.32551
LeftShoulder1  -1.94126e-019 -3.10601e-018 -2.51263e-017
LeftArm  -8.66192 23.6578 -77.8589
LeftForeArm  29.8277 -20.1169 -3.31089
LeftHand  -0.31033 -1.27065 5.55644
RightShoulder  -4.96962e-017 0 -2.36833e-017
RightArm  1.735 23.5022 88.4796
RightForeArm  41.6836 33.198 5.03673
RightHand  -0.328696 0.516603 -6.54377
LeftUpLeg  -8.84662 -13.6202 -0.201176
LeftLeg  1.27019 7.78056 -0.32685
LeftFoot  9.8635 -0.113852 1.48045
LeftToes  -19.298 1.48321e-006 1.01846e-007
236
root  -55.1667 35.0027 30.1568 -172.299 30.2888 177.776
RightUpLeg  -6.70111 -20.5089 -2.73603
RightLeg  9.59314 -7.11531 -0.732294
RightFoot  0.239645 -0.000472829 0.147869
RightToes  -20.8884 -0.0930284 -0.183927
Spine  -1.70097 3.56577 -1.82488
Spine1  -3.38777 6.91985 -2.9366
HEad  -51.0037 -13.017 5.0487
LeftShoulder1  -1.94126e-019 -3.10601e-018 -2.51263e-017
LeftArm  -9.19006 23.6288 -77.8137
LeftForeArm  29.9678 -19.2448 -3.18699
LeftHand  -0.321956 -1.04342 5.94386
RightShoulder  -4.96962e-017 0 -2.36833e-017
RightArm  1.30207 22.9442 88.4194
RightForeArm  38.7083 34.5552 5.526
RightHand  -0.309698 0.422396 -6.26053
LeftUpLeg  -9.03073 -13.78 -0.140952
LeftLeg  1.30793 7.78721 -0.322011
LeftFoot  9.88204 -0.114804 1.48541
LeftToes  -19.2093 1.48321e-006 1.01846e-007
237
root  -55.1717 35.0019 30.1526 -172.161 30.0412 177.809
RightUpLeg  -6.75512 -20.7395 -2.67354
RightLeg  9.53073 -7.13476 -0.726449
RightFoot  0.28036 -0.00115313 0.1495
RightToes  -20.9077 -0.0929763 -0.184537
Spine  -1.68792 3.58091 -1.87978
Spine1  -3.36906 6.95945 -3.03313
HEad  -50.8996 -13.0133 4.73695
LeftShoulder1  -1.94126e-019 -3.10601e-018 -2.51263e-017
LeftArm  -9.66402 23.6821 -77.6568
LeftForeArm  30.2854 -18.4024 -3.06133
LeftHand  -0.312399 -1.00773 5.79987
RightShoulder  -4.96962e-017 0 -2.36833e-017
RightArm  0.33257 21.9873 88.3437
RightForeArm  34.7656 37.0308 6.38972
RightHand  -0.245731 -1.29325 -6.84187
LeftUpLeg  -9.19124 -13.857 -0.0865173
LeftLeg  1.32481 7.62676 -0.313177
LeftFoot  9.94259 -0.114136 1.46645
LeftToes  -19.382 1.48321e-006 1.01846e-007
238
root  -55.1915 34.9992 30.1311 -172.093 29.6778 177.767
RightUpLeg  -6.7952 -21.1344 -2.72105
RightLeg  9.57927 -7.11527 -0.730553
RightFoot  0.245859 -0.00178213 0.150213
RightToes  -20.9788 -0.0929413 -0.185236
Spine  -1.68936 3.5632 -1.91817
Spine1  -3.37633 6.93126 -3.09402
HEad  -50.4547 -13.2403 4.18615
LeftShoulder1  -1.94126e-019 -3.10601e-018 -2.51263e-017
LeftArm  -10.1016 23.765 -77.5824
LeftForeArm  30.6676 -17.4981 -2.92135
LeftHand  -0.328192 -1.18199 5.94063
RightShoulder  -4.96962e-017 0 -2.36833e-017
RightArm  -1.43614 20.7502 88.2664
RightForeArm  30.8871 40.1415 7.50777
RightHand  -0.23005 -0.925265 -5.90787
LeftUpLeg  -9.31997 -14.1133 -0.128535
LeftLeg  1.3489 7.53062 -0.306095
LeftFoot  9.94429 -0.113588 1.45061
LeftToes  -19.1885 1.48321e-006 1.01846e-007
239
root  -55.205 34.9967 30.1046 -172.022 29.3219 177.788
RightUpLeg  -6.77698 -21.1552 -2.72444
RightLeg  9.60872 -7.41841 -0.765346
RightFoot  0.263716 -0.00229179 0.149041
RightToes  -21.05 -0.0929207 -0.186005
Spine  -1.68567 3.47539 -1.94826
Spine1  -3.37001 6.76133 -3.14126
HEad  -49.8541 -13.4813 3.53153
LeftShoulder1  -1.94126e-019 -3.10601e-018 -2.51263e-017
LeftArm  -10.3739 23.9557 -77.3848
LeftForeArm  30.7835 -16.9883 -2.83583
LeftHand  -0.323235 -1.02966 5.97867
RightShoulder  -4.96962e-017 0 -2.36833e-017
RightArm  -2.80837 19.559 88.4649
RightForeArm  28.2201 43.1439 8.63075
RightHand  -0.169214 -1.76797 -5.19293
LeftUpLeg  -9.38901 -14.2935 -0.110228
LeftLeg  1.33251 7.35061 -0.300922
LeftFoot  9.96949 -0.112195 1.42289
LeftToes  -19.226 1.48321e-006 1.01846e-007
